<?xml version="1.0" encoding="UTF-8" standalone="no"?>
<!-- Created with Inkscape (http://www.inkscape.org/) -->

<svg
   version="1.1"
   id="svg1"
   width="1600"
   height="1600"
   viewBox="0 0 1600 1600"
   sodipodi:docname="rm330-pa-logo2-02.eps"
   xmlns:inkscape="http://www.inkscape.org/namespaces/inkscape"
   xmlns:sodipodi="http://sodipodi.sourceforge.net/DTD/sodipodi-0.dtd"
   xmlns="http://www.w3.org/2000/svg"
   xmlns:svg="http://www.w3.org/2000/svg">
  <defs
     id="defs1" />
  <sodipodi:namedview
     id="namedview1"
     pagecolor="#ffffff"
     bordercolor="#000000"
     borderopacity="0.25"
     inkscape:showpageshadow="2"
     inkscape:pageopacity="0.0"
     inkscape:pagecheckerboard="0"
     inkscape:deskcolor="#d1d1d1">
    <inkscape:page
       x="0"
       y="0"
       inkscape:label="1"
       id="page1"
       width="1600"
       height="1600"
       margin="0"
       bleed="0" />
  </sodipodi:namedview>
  <g
     id="g1"
     inkscape:groupmode="layer"
     inkscape:label="1">
    <g
       id="group-R5">
      <path
         id="path2"
         d="M 12000,0 H 0 V 12000 H 12000 V 0"
         style="fill:#edebda;fill-opacity:1;fill-rule:nonzero;stroke:none"
         transform="matrix(0.13333333,0,0,-0.13333333,0,1600)" />
      <path
         id="path3"
         d="M 8322.2,5098.58 H 3610.42 V 6118.1 H 8322.2 Z M 3610.42,6457.97 h 65.41 v -238.02 h -65.41 z m 4711.78,676.69 v -569.8 H 3610.42 v 569.8 z M 5974.42,9251.04 c 673.09,0 1222.17,-539.54 1238.4,-1208.79 h -2476.8 c 16.23,669.25 565.31,1208.79 1238.4,1208.79 z M 8269.98,6457.97 h 52.22 v -238.02 h -52.22 z m -108.63,0 h 57.71 v -238.02 h -57.71 z m -108.63,0 h 57.72 v -238.02 h -57.72 z m -108.62,0 h 57.72 v -238.02 h -57.72 z m -108.62,0 h 57.71 v -238.02 h -57.71 z m -99.18,0 h 48.27 v -238.02 h -48.27 z m -108.6,0 h 57.69 v -238.02 h -57.69 z m -108.63,0 h 57.71 v -238.02 h -57.71 z m -108.62,0 h 57.7 v -238.02 h -57.7 z m -108.63,0 h 57.71 v -238.02 h -57.71 z m -108.63,0 h 57.72 v -238.02 h -57.72 z m -108.62,0 h 57.72 v -238.02 h -57.72 z m -108.62,0 h 57.71 v -238.02 h -57.71 z m -108.63,0 h 57.72 v -238.02 h -57.72 z m -108.62,0 h 57.72 v -238.02 h -57.72 z m -108.62,0 h 57.71 v -238.02 h -57.71 z m -108.62,0 h 57.71 v -238.02 h -57.71 z m -108.63,0 h 57.72 v -238.02 h -57.72 z m -108.6,0 h 57.69 v -238.02 h -57.69 z m -108.62,0 h 57.71 v -238.02 h -57.71 z m -99.19,0 h 48.28 v -238.02 h -48.28 z m -108.63,0 h 57.72 v -238.02 h -57.72 z m -108.62,0 h 57.71 v -238.02 h -57.71 z m -108.62,0 h 57.71 v -238.02 h -57.71 z m -108.63,0 h 57.72 v -238.02 h -57.72 z m -108.62,0 h 57.72 v -238.02 h -57.72 z m -108.62,0 h 57.71 v -238.02 h -57.71 z m -108.63,0 h 57.72 v -238.02 h -57.72 z m -108.62,0 h 57.72 v -238.02 h -57.72 z m -108.62,0 h 57.71 v -238.02 h -57.71 z m -108.6,0 h 57.69 v -238.02 h -57.69 z m -108.63,0 h 57.72 v -238.02 h -57.72 z m -108.62,0 h 57.71 v -238.02 h -57.71 z m -108.62,0 h 57.71 v -238.02 h -57.71 z m -108.63,0 h 57.72 v -238.02 h -57.72 z m -108.62,0 h 57.71 v -238.02 h -57.71 z m -108.62,0 h 57.71 v -238.02 h -57.71 z m -108.63,0 h 57.72 v -238.02 h -57.72 z m -108.62,0 h 57.72 v -238.02 h -57.72 z m -108.62,0 h 57.71 v -238.02 h -57.71 z m -108.63,0 h 57.71 v -238.02 h -57.71 z m -108.62,0 h 57.71 v -238.02 h -57.71 z m -108.61,0 h 57.69 v -238.02 h -57.69 z m -116.32,68.7 H 8322.2 v -30.5 H 3610.42 Z M 8626.44,6118.1 v 101.85 h -227.85 v 914.71 h 197.72 c 4.03,0 7.82,1.91 10.23,5.13 2.4,3.24 3.12,7.43 1.97,11.28 l -266.84,882.13 c -1.63,5.37 -6.57,9.05 -12.19,9.05 H 7309.4 c -16.25,722.51 -608.62,1305.37 -1334.98,1305.37 -726.36,0 -1318.73,-582.86 -1334.99,-1305.37 h -1036.3 c -5.61,0 -10.55,-3.68 -12.19,-9.05 l -266.81,-882.13 c -1.15,-3.85 -0.43,-8.04 1.96,-11.28 2.42,-3.22 6.2,-5.13 10.23,-5.13 h 197.7 V 6219.95 H 3338.63 V 6118.1 h 195.39 V 5098.58 H 3322.4 v -101.85 h 5287.81 v 101.85 H 8398.59 V 6118.1 h 227.85"
         style="fill:#50241f;fill-opacity:1;fill-rule:nonzero;stroke:none"
         transform="matrix(0.13333333,0,0,-0.13333333,0,1600)" />
      <path
         id="path4"
         d="m 4311.29,6671.63 h -336.14 v 163.23 h 336.14 z m -336.14,336.14 h 336.14 v -65.17 h -336.14 z m 336.14,-134.7 h -336.14 v 31.32 h 336.14 z m 38.19,172.91 h -412.53 v -412.55 h 412.53 v 412.55"
         style="fill:#50241f;fill-opacity:1;fill-rule:nonzero;stroke:none"
         transform="matrix(0.13333333,0,0,-0.13333333,0,1600)" />
      <path
         id="path5"
         d="m 5042.64,6671.63 h -336.15 v 163.23 h 336.15 z m -336.15,336.14 h 336.15 v -65.17 h -336.15 z m 336.15,-134.7 h -336.15 v 31.32 h 336.15 z m 38.2,172.91 H 4668.3 v -412.55 h 412.54 v 412.55"
         style="fill:#50241f;fill-opacity:1;fill-rule:nonzero;stroke:none"
         transform="matrix(0.13333333,0,0,-0.13333333,0,1600)" />
      <path
         id="path6"
         d="m 5773.98,6671.63 h -336.14 v 163.23 h 336.14 z m -336.14,336.14 h 336.14 v -65.17 h -336.14 z m 0,-134.7 v 31.32 h 336.14 v -31.32 z m 374.34,172.91 h -412.54 v -412.55 h 412.54 v 412.55"
         style="fill:#50241f;fill-opacity:1;fill-rule:nonzero;stroke:none"
         transform="matrix(0.13333333,0,0,-0.13333333,0,1600)" />
      <path
         id="path7"
         d="m 5955.58,6002.25 h -476.16 v -836.31 h 476.16 v 836.31"
         style="fill:#50241f;fill-opacity:1;fill-rule:nonzero;stroke:none"
         transform="matrix(0.13333333,0,0,-0.13333333,0,1600)" />
      <path
         id="path8"
         d="m 6475.7,6002.25 h -476.15 v -836.31 h 476.15 v 836.31"
         style="fill:#50241f;fill-opacity:1;fill-rule:nonzero;stroke:none"
         transform="matrix(0.13333333,0,0,-0.13333333,0,1600)" />
      <path
         id="path9"
         d="m 5080.74,6002.25 h -328.11 v -726.69 h 328.11 v 726.69"
         style="fill:#50241f;fill-opacity:1;fill-rule:nonzero;stroke:none"
         transform="matrix(0.13333333,0,0,-0.13333333,0,1600)" />
      <path
         id="path10"
         d="m 7207.99,6002.25 h -328.12 v -726.69 h 328.12 v 726.69"
         style="fill:#50241f;fill-opacity:1;fill-rule:nonzero;stroke:none"
         transform="matrix(0.13333333,0,0,-0.13333333,0,1600)" />
      <path
         id="path11"
         d="m 7917.07,6002.25 h -328.11 v -726.69 h 328.11 v 726.69"
         style="fill:#50241f;fill-opacity:1;fill-rule:nonzero;stroke:none"
         transform="matrix(0.13333333,0,0,-0.13333333,0,1600)" />
      <path
         id="path12"
         d="m 4371.67,6002.25 h -328.13 v -726.69 h 328.13 v 726.69"
         style="fill:#50241f;fill-opacity:1;fill-rule:nonzero;stroke:none"
         transform="matrix(0.13333333,0,0,-0.13333333,0,1600)" />
      <path
         id="path13"
         d="m 6473.32,6671.63 h -336.15 v 163.23 h 336.15 z m -336.15,336.14 h 336.15 v -65.17 h -336.15 z m 336.15,-134.7 h -336.15 v 31.32 h 336.15 z m 38.19,172.91 h -412.54 v -412.55 h 412.54 v 412.55"
         style="fill:#50241f;fill-opacity:1;fill-rule:nonzero;stroke:none"
         transform="matrix(0.13333333,0,0,-0.13333333,0,1600)" />
      <path
         id="path14"
         d="m 7204.67,6671.63 h -336.14 v 163.23 h 336.14 z m -336.14,336.14 h 336.14 v -65.17 h -336.14 z m 336.14,-134.7 h -336.14 v 31.32 h 336.14 z m 38.19,172.91 h -412.54 v -412.55 h 412.54 v 412.55"
         style="fill:#50241f;fill-opacity:1;fill-rule:nonzero;stroke:none"
         transform="matrix(0.13333333,0,0,-0.13333333,0,1600)" />
      <path
         id="path15"
         d="m 7936.02,6671.63 h -336.16 v 163.23 h 336.16 z m -336.16,336.14 h 336.16 v -65.17 h -336.16 z m 0,-134.7 v 31.32 h 336.16 v -31.32 z m 374.35,172.91 h -412.54 v -412.55 h 412.54 v 412.55"
         style="fill:#50241f;fill-opacity:1;fill-rule:nonzero;stroke:none"
         transform="matrix(0.13333333,0,0,-0.13333333,0,1600)" />
      <path
         id="path16"
         d="m 5222.3,4287.96 h 1488.01 v 101.85 H 5222.3 v -101.85"
         style="fill:#50241f;fill-opacity:1;fill-rule:nonzero;stroke:none"
         transform="matrix(0.13333333,0,0,-0.13333333,0,1600)" />
      <path
         id="path17"
         d="M 5311.44,4464.78 H 6621.2 v 101.85 H 5311.44 v -101.85"
         style="fill:#50241f;fill-opacity:1;fill-rule:nonzero;stroke:none"
         transform="matrix(0.13333333,0,0,-0.13333333,0,1600)" />
      <path
         id="path18"
         d="M 5426.02,4641.59 H 6506.6 v 101.86 H 5426.02 v -101.86"
         style="fill:#50241f;fill-opacity:1;fill-rule:nonzero;stroke:none"
         transform="matrix(0.13333333,0,0,-0.13333333,0,1600)" />
      <path
         id="path19"
         d="m 5576.25,4920.27 v -101.85 h 780.12 v 101.85 h -780.12"
         style="fill:#50241f;fill-opacity:1;fill-rule:nonzero;stroke:none"
         transform="matrix(0.13333333,0,0,-0.13333333,0,1600)" />
      <g
         id="g19"
         aria-label="HOSTEL&#10;WE TREAT YOU LIKE FAMILY"
         transform="matrix(1.3333333,0,0,1.3333333,432.93867,1196.5293)">
        <path
           id="path20"
           d="M 5.8467812,0.0014375 H 44.999125 V -5.55325 l -7.347656,0.3046875 c -1.957032,0 -3,-1.0546875 -3,-3.3046875 v -34.5 h 35.097656 v 34.5 c 0,2.25 -0.902344,3.3046875 -2.847656,3.3046875 L 59.553812,-5.55325 v 5.5546875 h 39 V -5.55325 l -5.25,0.3046875 C 91.346781,-5.0962188 90.444437,-6.30325 90.444437,-8.55325 v -72.597656 c 0,-0.902344 0.304688,-1.652344 0.75,-2.25 0.457032,-0.597657 1.054688,-0.902344 1.804688,-0.902344 h 0.304687 l 5.25,0.304687 v -5.554687 h -39 v 5.554687 l 7.347657,-0.304687 c 1.945312,-0.140625 2.847656,0.902344 2.847656,3.152344 V -48.30325 H 34.651469 v -32.847656 c 0,-0.902344 0.292968,-1.652344 0.75,-2.25 0.445312,-0.597657 1.042968,-0.902344 1.945312,-0.902344 h 0.304688 l 7.347656,0.304687 V -89.55325 H 5.8467812 v 5.554687 l 5.2499998,-0.304687 c 1.957031,-0.140625 2.847656,0.902344 2.847656,3.152344 V -8.55325 c 0,2.25 -0.890625,3.3046875 -2.542968,3.3046875 H 11.096781 L 5.8467812,-5.55325 Z M 112.64854,-44.846219 c 0,14.695313 4.05469,26.097656 12.15234,34.195313 8.09766,8.097656 19.5,12.1523435 34.19532,12.1523435 14.70703,0 26.09765,-4.0546875 34.20703,-12.1523435 8.09765,-8.097657 12.14062,-19.5 12.14062,-34.195313 0,-14.554687 -4.04297,-25.957031 -12,-34.054687 -7.94531,-8.097657 -19.5,-12.152344 -34.34765,-12.152344 -14.69532,0 -26.09766,3.902344 -34.19532,11.859375 -8.09765,7.945312 -12.15234,19.5 -12.15234,34.347656 z m 22.65234,0 c 0,-10.347656 0.90235,-18.597656 2.54297,-24.597656 1.65235,-6 4.20703,-10.207031 7.65235,-12.75 3.45703,-2.554688 7.95703,-3.75 13.5,-3.75 5.55468,0 10.05468,1.195312 13.5,3.75 3.45703,2.542969 6,6.75 7.65234,12.75 1.65234,6 2.55469,14.25 2.55469,24.597656 0,10.5 -0.90235,18.75 -2.55469,24.597656 -1.65234,6 -4.19531,10.195313 -7.65234,12.7500005 -3.44532,2.5546875 -7.94532,3.75 -13.5,3.75 -5.54297,0 -10.04297,-1.1953125 -13.5,-3.75 -3.44532,-2.5546875 -6,-6.7500005 -7.65235,-12.7500005 -1.64062,-5.847656 -2.54297,-14.097656 -2.54297,-24.597656 z m 84.44824,14.847656 c 0.44532,0.152344 0.75,1.945313 0.90235,5.402344 0.14062,3.445313 0.29297,7.042969 0.29297,11.097656 0,5.554688 -0.15235,9.445313 -0.59766,11.554688 0.44531,-0.1523438 1.19531,-0.4570313 2.55469,-0.609375 1.19531,-0.140625 2.25,-0.140625 3.14062,-0.140625 2.10938,0 6,0.75 11.70703,2.25 5.09766,1.34765625 9.90235,1.9453125 14.25,1.9453125 7.04297,0 12.90235,-1.34765625 17.84766,-3.9023438 4.94531,-2.5429687 8.55469,-6 11.09766,-10.3476567 2.55468,-4.347656 3.75,-9.152343 3.75,-14.554687 0,-6.292969 -1.65235,-11.390625 -4.94532,-15.292969 -3.45703,-3.75 -9,-7.347656 -16.80468,-10.804687 l -12.75,-5.402344 c -4.5,-1.792969 -7.79297,-3.890625 -9.75,-6.140625 -2.09766,-2.25 -3.15235,-4.652344 -3.15235,-7.5 0,-4.054688 1.5,-7.207031 4.65235,-9.75 3.15234,-2.554688 7.05468,-3.75 11.84765,-3.75 6.15235,0 11.25,1.945312 15.60938,5.695312 4.19531,3.902344 6.29297,9 6.29297,15.152344 h 5.09765 c -0.44531,-1.054687 -0.59765,-2.25 -0.75,-3.597656 -0.14062,-1.359375 -0.14062,-3.457031 -0.14062,-6.304688 0,-5.25 0.14062,-9 0.44531,-11.402343 -1.05469,0.457031 -2.55469,0.597656 -4.19531,0.597656 -1.35938,0 -2.85938,-0.292969 -4.5,-0.890625 -1.05469,-0.304688 -2.70703,-0.902344 -4.95703,-1.652344 -2.25,-0.75 -4.65235,-1.5 -6.90235,-1.957031 -2.25,-0.445313 -5.09765,-0.75 -8.39062,-0.75 -6.60938,0 -12.15235,1.207031 -16.80469,3.609375 -4.65234,2.390625 -8.09766,5.542969 -10.34766,9.597656 -2.25,4.042969 -3.45703,8.402344 -3.45703,13.195313 0,10.804687 5.70703,18.597656 17.10938,23.25 l 14.69531,6.152343 c 9.44531,3.75 14.25,9 14.25,16.054688 0,4.640625 -1.5,8.25 -4.34766,11.0976562 -3,2.8476563 -7.05468,4.1953125 -12.15234,4.1953125 -6.90234,0 -12.59766,-2.25 -17.25,-6.7499997 -4.65234,-4.5 -7.5,-11.097657 -8.55469,-19.792969 z m 74.5459,-36.597656 h 5.09766 c 0,-6.152344 1.5,-10.652344 4.34766,-13.5 2.85937,-2.847656 7.65234,-4.347656 14.25,-4.347656 h 2.70703 c 1.19531,0 1.79297,0.597656 1.79297,1.792969 v 73.6523435 c 0,1.0546875 -0.29297,1.8046875 -0.75,2.5546875 -0.44532,0.75 -1.19532,1.1953125 -2.09766,1.1953125 L 311.54502,-5.55325 v 5.5546875 h 42.59766 V -5.55325 l -7.94531,0.3046875 c -1.95703,0 -3,-1.0546875 -3,-3.3046875 v -74.25 c 0.15234,-1.042969 0.75,-1.640625 1.79297,-1.640625 h 3 c 6.60937,0 11.40234,1.5 14.25,4.347656 2.85937,2.847656 4.20703,7.347656 4.20703,13.5 h 4.94531 v -23.402344 c -1.04297,0.152344 -3.29297,0.304688 -7.04297,0.304688 h -62.85937 c -3,0 -5.39063,-0.152344 -7.19532,-0.304688 z m 88.94825,66.5976565 h 58.80468 c 7.34766,0 12.15235,0.15234375 14.40235,0.4453125 v -27.292969 h -5.25 c 0,6.902344 -1.80469,12.152344 -5.25,15.902344 -3.60938,3.75 -8.85938,5.5429687 -15.60938,5.5429687 h -16.5 c -1.19531,0 -1.79297,-0.5976562 -1.79297,-1.9453125 V -43.498563 h 10.79297 c 3.15235,0 5.85938,1.347657 8.10938,4.195313 2.25,2.859375 3.29297,6.457031 3.29297,10.652344 h 5.09765 v -35.25 h -5.09765 c 0,4.652343 -1.04297,8.402343 -3.15235,11.097656 -2.09765,2.707031 -4.79297,4.054687 -8.25,4.054687 h -10.79297 v -33.445312 c 0,-1.359375 0.59766,-2.109375 1.79297,-2.109375 h 11.55469 c 7.34766,0 12.75,1.359375 16.19531,4.207031 3.45703,2.847656 5.10938,7.347656 5.10938,13.652344 h 5.25 v -23.25 c -0.30469,0.140625 -1.20703,0.140625 -2.55469,0.140625 h -66.15234 v 5.554687 l 5.09765,-0.304687 c 0.90235,-0.140625 1.65235,0.152344 2.25,0.75 0.45703,0.75 0.75,1.5 0.75,2.402344 V -8.55325 c 0,2.25 -0.89062,3.3046875 -2.69531,3.3046875 l -5.40234,-0.4453125 z m 89.39941,0 h 49.34766 c 10.65234,0 16.80468,0.15234375 18.60937,0.4453125 v -26.097656 h -4.95703 c 0,6.597656 -1.65234,11.554687 -5.09766,15 -3.44531,3.457031 -8.40234,5.2499997 -14.84765,5.2499997 h -12.45703 c -1.19532,0 -1.79297,-0.5976562 -1.79297,-1.9453125 V -81.150906 c 0,-0.902344 0.29297,-1.652344 0.75,-2.25 0.44531,-0.597657 1.19531,-0.902344 1.94531,-0.902344 h 0.30469 l 7.34765,0.304687 v -5.554687 h -39.15234 v 5.554687 l 5.25,-0.304687 c 0.75,-0.140625 1.5,0.152344 2.09766,0.75 0.45703,0.75 0.75,1.5 0.75,2.402344 V -8.55325 c 0,2.25 -0.75,3.3046875 -2.25,3.3046875 l -5.84766,-0.4453125 z m 0,0"
           style="fill:#50241f;fill-opacity:1;fill-rule:nonzero;stroke:none" />
        <path
           id="path21"
           d="M 56.958109,29.849094 51.590922,45.903781 46.282328,29.849094 h -3.597656 l -5.4375,15.960937 -5.214844,-15.960937 h -4.054687 l 6.960937,21 h 4.171875 l 5.273438,-15.539063 5.191406,15.539063 h 4.148437 l 6.960938,-21 z M 70.004008,47.579562 V 41.7905 H 80.152445 V 38.579562 H 70.004008 v -5.460937 h 11.4375 V 29.849094 H 66.113383 v 21 h 15.75 v -3.269532 z m 33.240232,3.269532 h 3.90235 V 33.153781 h 6.96093 V 29.849094 H 96.283305 v 3.304687 h 6.960935 z m 33.99903,0 -4.83985,-6.902344 c 1.44141,-0.5625 2.55469,-1.40625 3.33985,-2.542969 0.75,-1.148437 1.13671,-2.496094 1.13671,-4.089844 0,-1.523437 -0.36328,-2.871093 -1.07812,-3.984375 -0.72656,-1.113281 -1.74609,-1.980468 -3.09375,-2.578125 -1.34766,-0.597656 -2.94141,-0.902343 -4.76953,-0.902343 h -8.63672 v 21 h 3.89062 v -6.117188 h 4.7461 c 0.36328,0 0.63281,0 0.80859,-0.03516 l 4.28906,6.152344 z m -4.30079,-13.535157 c 0,1.359375 -0.44531,2.378907 -1.3125,3.09375 -0.86718,0.75 -2.16796,1.113282 -3.86718,1.113282 h -4.57032 v -8.367188 h 4.57032 c 1.69922,0 3,0.351563 3.86718,1.078125 0.86719,0.714844 1.3125,1.734375 1.3125,3.082031 z M 147.3712,47.579562 V 41.7905 h 10.14843 V 38.579562 H 147.3712 v -5.460937 h 11.4375 v -3.269531 h -15.32813 v 21 h 15.75 v -3.269532 z m 34.1748,3.269532 h 4.07812 l -9.48046,-21 h -3.83204 l -9.45703,21 h 4.01953 l 2.07422,-4.863282 h 10.5 z m -11.27344,-7.921875 3.92578,-9.175782 3.96094,9.175782 z m 23.48145,7.921875 h 3.90234 V 33.153781 h 6.96094 v -3.304687 h -17.82422 v 3.304687 h 6.96094 z m 43.86035,-21 h -3.83203 l -6.21094,10.230468 -6.15234,-10.230468 h -4.17188 l 8.25,13.652343 v 7.347657 h 3.90235 v -7.40625 z m 13.71387,21.304687 c 2.13281,0 4.07812,-0.480469 5.78906,-1.417969 1.71094,-0.925781 3.05859,-2.191406 4.04297,-3.832031 0.99609,-1.652344 1.47656,-3.480469 1.47656,-5.554687 0,-2.074219 -0.48047,-3.902344 -1.47656,-5.554688 -0.98438,-1.640625 -2.33203,-2.929687 -4.04297,-3.867187 -1.71094,-0.925782 -3.65625,-1.382813 -5.78906,-1.382813 -2.13282,0 -4.07813,0.457031 -5.78907,1.382813 -1.71093,0.9375 -3.05859,2.226562 -4.05468,3.867187 -0.98438,1.652344 -1.46485,3.515625 -1.46485,5.554688 0,2.039062 0.48047,3.867187 1.46485,5.519531 0.99609,1.652344 2.34375,2.941406 4.05468,3.867187 1.71094,0.9375 3.65625,1.417969 5.78907,1.417969 z m 0,-3.421875 c -1.41797,0 -2.67188,-0.328125 -3.78516,-0.960937 -1.11328,-0.632813 -2.00391,-1.5 -2.63672,-2.636719 -0.63281,-1.113281 -0.96094,-2.378906 -0.96094,-3.785156 0,-1.40625 0.32813,-2.671875 0.96094,-3.808594 0.63281,-1.113281 1.52344,-2.015625 2.63672,-2.636719 1.11328,-0.632812 2.36719,-0.9375 3.78516,-0.9375 1.40625,0 2.67187,0.304688 3.77343,0.9375 1.11329,0.621094 2.01563,1.523438 2.64844,2.636719 0.6211,1.136719 0.96094,2.402344 0.96094,3.808594 0,1.40625 -0.33984,2.671875 -0.96094,3.785156 -0.63281,1.136719 -1.53515,2.003906 -2.64844,2.636719 -1.10156,0.632812 -2.36718,0.960937 -3.77343,0.960937 z m 26.72461,3.421875 c 2.91796,0 5.16796,-0.820312 6.78515,-2.460937 1.58203,-1.628907 2.40235,-3.960938 2.40235,-6.996094 V 29.849094 h -3.84375 v 11.695312 c 0,4.113281 -1.76954,6.1875 -5.3086,6.1875 -3.57422,0 -5.34375,-2.074219 -5.34375,-6.1875 V 29.849094 H 268.8419 V 41.69675 c 0,3.035156 0.80859,5.367187 2.4375,6.996094 1.61719,1.640625 3.86719,2.460937 6.77344,2.460937 z m 27.42773,-0.304687 h 14.87109 V 47.544406 H 309.3712 V 29.849094 h -3.89063 z m 20.21777,0 h 3.89063 v -21 h -3.89063 z m 26.45801,0 h 4.5586 l -9.36329,-11.613282 8.82422,-9.386718 h -4.38281 L 341.41026,40.618625 V 29.849094 h -3.89063 v 21 h 3.89063 v -5.367188 l 3.33984,-3.421875 z m 13.37402,-3.269532 V 41.7905 h 10.14844 v -3.210938 h -10.14844 v -5.460937 h 11.4375 v -3.269531 h -15.32812 v 21 h 15.75 V 47.579562 Z M 409.84483,33.118625 V 29.849094 H 394.5167 v 21 h 3.89063 v -8.039063 h 10.14844 v -3.304687 h -10.14844 v -6.386719 z m 20.84765,17.730469 h 4.07813 l -9.48047,-21 h -3.83203 l -9.45703,21 h 4.01953 l 2.07422,-4.863282 h 10.5 z m -11.27343,-7.921875 3.92578,-9.175782 3.96094,9.175782 z m 43.25976,7.921875 -0.0351,-21 h -3.21094 l -8.19141,13.921875 -8.33203,-13.921875 h -3.21094 v 21 h 3.71485 V 37.114719 l 6.90234,11.332031 h 1.73438 l 6.90234,-11.519531 0.0352,13.921875 z m 7.91895,0 h 3.89062 v -21 h -3.89062 z m 11.81836,0 h 14.87109 V 47.544406 H 486.30674 V 29.849094 h -3.89062 z m 35.30273,-21 h -3.83203 l -6.21094,10.230468 -6.15234,-10.230468 h -4.17188 l 8.25,13.652343 v 7.347657 h 3.90235 v -7.40625 z m 0,0"
           style="fill:#50241f;fill-opacity:1;fill-rule:nonzero;stroke:none" />
      </g>
    </g>
  </g>
</svg>
